<svg xmlns="http://www.w3.org/2000/svg" width="834" height="713" viewBox="0 0 834 713" version="1.1"><path d="M 155.109 182.581 C 147.159 184.719, 141.271 187.556, 135.046 192.247 C 131.996 194.546, 113.959 211.743, 94.965 230.463 C 75.971 249.183, 52.916 270.973, 43.733 278.884 L 27.035 293.268 32.101 299.116 C 41.813 310.327, 48.061 313.878, 58.212 313.956 C 69.799 314.045, 78.579 308.589, 107.038 283.617 C 115.542 276.155, 122.762 270.038, 123.081 270.025 C 123.401 270.011, 129.326 276.440, 136.248 284.311 C 143.170 292.181, 151.536 301.453, 154.840 304.914 L 160.846 311.207 161.461 306.353 C 163.074 293.616, 167.293 282.013, 173.407 273.500 C 178.792 266.001, 191.736 253.237, 198.354 248.901 C 208.644 242.160, 222.947 238.112, 236.750 238.035 C 240.213 238.016, 243 237.556, 243 237.003 C 243 235.552, 223.181 213.145, 211.523 201.416 C 203.509 193.352, 199.997 190.600, 194 187.681 C 180.458 181.089, 167.148 179.344, 155.109 182.581 M 230.763 248.965 C 194.379 255.610, 170.480 285.600, 172.233 322.414 C 173.057 339.733, 178.747 352.638, 191.379 365.838 C 205.599 380.698, 221.520 387.546, 241.500 387.397 C 261.062 387.251, 276.176 380.918, 290.058 367.049 C 298.962 358.154, 304.491 349.196, 308.608 337 C 311.274 329.101, 311.284 306.802, 308.626 299 C 304.480 286.834, 298.910 277.836, 290.037 268.972 C 280.703 259.647, 272.693 254.787, 260.506 251.056 C 252.653 248.651, 238.088 247.628, 230.763 248.965 M 403.726 314.360 C 395.756 317.723, 384.820 326.164, 361.498 346.953 C 351.593 355.783, 349.594 357.170, 348.635 355.884 C 348.011 355.046, 341.875 347.680, 335 339.514 L 322.500 324.667 321.782 330.583 C 319.766 347.206, 313.421 360.291, 301.063 373.312 C 285.579 389.626, 271.457 396.507, 250.761 397.820 L 240.051 398.500 253.643 413.500 C 268.186 429.549, 272.040 432.749, 280.752 436.008 C 297.003 442.089, 312.165 441.049, 328.522 432.734 C 331.260 431.342, 343.850 421.283, 356.500 410.380 C 369.150 399.477, 394.350 377.799, 412.500 362.206 C 430.650 346.613, 445.638 333.473, 445.807 333.007 C 446.329 331.563, 432.885 318.017, 428.212 315.279 C 421.670 311.445, 411.536 311.064, 403.726 314.360 M 581.768 374.725 C 583.565 374.947, 586.265 374.943, 587.768 374.715 C 589.271 374.486, 587.800 374.304, 584.500 374.310 C 581.200 374.315, 579.971 374.502, 581.768 374.725 M 727.477 393.250 L 719.500 401.500 727.750 393.523 C 735.412 386.115, 736.456 385, 735.727 385 C 735.576 385, 731.864 388.712, 727.477 393.250 M 653.750 441.723 C 655.538 441.945, 658.462 441.945, 660.250 441.723 C 662.038 441.502, 660.575 441.320, 657 441.320 C 653.425 441.320, 651.962 441.502, 653.750 441.723 M 772.223 482.557 C 769.805 484.250, 769.291 487.891, 771.200 489.800 C 773.109 491.709, 776.750 491.195, 778.443 488.777 C 780.447 485.917, 780.408 485.408, 778 483 C 775.592 480.592, 775.083 480.553, 772.223 482.557 M 203.420 503.500 C 203.419 514.500, 203.565 519.136, 203.745 513.803 C 203.924 508.470, 203.925 499.470, 203.746 493.803 C 203.568 488.136, 203.421 492.500, 203.420 503.500 M 634 503.500 L 634 523 638.500 523 L 643 523 643 519.122 C 643 516.868, 643.638 514.715, 644.524 513.980 C 646.303 512.504, 645.962 512.209, 649.449 518.250 C 652.187 522.995, 652.196 523, 657.606 523 L 663.022 523 657.574 514.250 L 652.126 505.500 657.279 500.250 L 662.432 495 657.271 495 C 652.417 495, 651.841 495.282, 647.578 499.750 L 643.046 504.500 643.023 494.250 L 643 484 638.500 484 L 634 484 634 503.500 M 99.417 504.500 C 99.418 514.950, 99.566 519.089, 99.746 513.698 C 99.926 508.307, 99.925 499.757, 99.744 494.698 C 99.563 489.639, 99.416 494.050, 99.417 504.500 M 489 504.448 L 489 523 492.968 523 L 496.937 523 497.218 511.432 L 497.500 499.864 501.898 509.984 C 506.175 519.823, 506.381 520.096, 509.308 519.802 C 512.095 519.522, 512.639 518.756, 516.623 509.500 L 520.928 499.500 520.964 511.250 L 521 523 525.500 523 L 530 523 530 504.500 L 530 486 524.630 486 L 519.260 486 514.429 496.500 C 511.773 502.275, 509.350 507, 509.045 507 C 508.740 507, 506.436 502.387, 503.924 496.750 L 499.357 486.500 494.178 486.198 L 489 485.895 489 504.448 M 166.438 495.300 C 166.164 496.016, 166.080 502.653, 166.251 510.050 L 166.563 523.500 166.782 509.305 L 167 495.110 171.750 494.735 L 176.500 494.360 171.719 494.180 C 168.578 494.062, 166.766 494.446, 166.438 495.300 M 224.250 494.716 C 225.762 494.945, 228.238 494.945, 229.750 494.716 C 231.262 494.487, 230.025 494.300, 227 494.300 C 223.975 494.300, 222.738 494.487, 224.250 494.716 M 336.264 494.718 C 337.784 494.947, 340.034 494.941, 341.264 494.704 C 342.494 494.467, 341.250 494.279, 338.500 494.286 C 335.750 494.294, 334.744 494.488, 336.264 494.718 M 368.187 494.700 C 371.549 494.990, 372.991 495.584, 373.286 496.802 C 373.576 498.003, 373.668 497.915, 373.598 496.500 C 373.514 494.794, 372.764 494.485, 368.500 494.398 L 363.500 494.296 368.187 494.700 M 436.222 494.702 L 440.944 495.107 441.266 508.555 L 441.588 522.003 441.544 508.251 L 441.500 494.500 436.500 494.398 L 431.500 494.296 436.222 494.702 M 555.508 495.357 C 551.194 496.657, 550.186 498.505, 552.251 501.328 C 553.335 502.811, 554.037 502.936, 556.345 502.059 C 561.878 499.955, 567 501.225, 567 504.700 C 567 505.588, 565.463 506, 562.149 506 C 552.697 506, 549 508.603, 549 515.260 C 549 521.771, 556.342 525.555, 563.319 522.640 C 565.344 521.794, 567 521.529, 567 522.051 C 567 522.573, 569.025 523, 571.500 523 L 576 523 576 511.934 C 576 505.848, 575.514 499.960, 574.920 498.850 C 572.589 494.494, 563.686 492.892, 555.508 495.357 M 611 495.101 C 609.625 495.637, 607.938 496.820, 607.250 497.729 C 606.127 499.214, 606 499.159, 606 497.191 C 606 495.261, 605.464 495, 601.500 495 L 597 495 597 509 L 597 523 601.500 523 L 606 523 606 515.223 C 606 506.354, 607.334 503.525, 612.001 502.500 C 614.711 501.905, 615 501.463, 615 497.921 C 615 493.725, 614.833 493.607, 611 495.101 M 685.508 495.357 C 681.225 496.647, 680.173 498.526, 682.221 501.222 C 683.324 502.674, 684.075 502.748, 687.686 501.763 C 692.418 500.472, 697 501.808, 697 504.479 C 697 505.631, 695.825 506, 692.149 506 C 682.697 506, 679 508.603, 679 515.260 C 679 521.771, 686.342 525.555, 693.319 522.640 C 695.344 521.794, 697 521.529, 697 522.051 C 697 522.573, 699.025 523, 701.500 523 L 706 523 706 511.965 C 706 503.633, 705.616 500.344, 704.434 498.540 C 701.595 494.207, 693.719 492.882, 685.508 495.357 M 725 498 L 725 501 731.500 501 C 735.075 501, 738 501.374, 738 501.830 C 738 502.287, 735.085 506, 731.523 510.080 C 726.968 515.299, 725.039 518.316, 725.023 520.250 L 725 523 738 523 L 751 523 751 519.544 L 751 516.088 744.061 515.794 L 737.122 515.500 744.060 507.500 C 748.212 502.711, 750.997 498.597, 750.998 497.250 C 751 495.032, 750.815 495, 738 495 L 725 495 725 498 M 770 509 L 770 523 774.500 523 L 779 523 779 509 L 779 495 774.500 495 L 770 495 770 509 M 393.370 513 C 393.370 518.775, 393.535 521.138, 393.737 518.250 C 393.939 515.362, 393.939 510.637, 393.737 507.750 C 393.535 504.863, 393.370 507.225, 393.370 513 M 257.907 506.310 C 258.355 506.756, 260.921 506.974, 263.610 506.795 L 268.500 506.468 262.797 505.984 C 259.660 505.718, 257.460 505.865, 257.907 506.310 M 373.349 515 C 373.349 519.675, 373.522 521.587, 373.732 519.250 C 373.943 516.913, 373.943 513.087, 373.732 510.750 C 373.522 508.413, 373.349 510.325, 373.349 515 M 262.784 511.738 C 265.689 511.941, 270.189 511.939, 272.784 511.734 C 275.378 511.528, 273 511.363, 267.500 511.365 C 262 511.368, 259.878 511.536, 262.784 511.738 M 558.105 512.373 C 556.209 514.658, 557.881 517, 561.407 517 C 564.985 517, 567 515.487, 567 512.800 C 567 511.376, 566.190 511, 563.122 511 C 560.990 511, 558.732 511.618, 558.105 512.373 M 688.105 512.373 C 686.209 514.658, 687.881 517, 691.407 517 C 694.985 517, 697 515.487, 697 512.800 C 697 511.376, 696.190 511, 693.122 511 C 690.990 511, 688.732 511.618, 688.105 512.373" stroke="none" fill="#d7b201" fill-rule="evenodd"/><path d="M 510.359 184.903 C 495.413 188.578, 500.876 184.339, 410 262.765 C 393.225 277.242, 379.370 289.663, 379.211 290.368 C 379.051 291.072, 382.730 295.305, 387.385 299.774 C 394.497 306.602, 396.763 308.166, 401.570 309.563 C 415.839 313.711, 428.014 307.494, 457.507 281 C 463.935 275.225, 470.434 269.482, 471.948 268.237 L 474.700 265.975 488.100 281.903 C 498.176 293.879, 501.658 297.417, 502.136 296.165 C 502.487 295.249, 503.266 291.276, 503.869 287.335 C 505.953 273.705, 511.710 262.378, 522.858 249.975 C 537.624 233.545, 556.172 225.031, 577.250 225.008 C 580.962 225.003, 584 224.764, 584 224.477 C 584 224.189, 577.453 216.826, 569.451 208.116 C 553.376 190.616, 550.425 188.542, 536.590 185.016 C 527.068 182.589, 519.896 182.558, 510.359 184.903 M 567.107 236.962 C 547.319 241.820, 529.541 256.020, 520.550 274.148 C 508.517 298.412, 511.086 325.132, 527.544 346.887 C 536.374 358.560, 551.662 368.854, 565.533 372.467 C 574.571 374.821, 593.054 374.531, 601.645 371.901 C 629.602 363.343, 647.692 341.923, 652.025 312.250 C 654.567 294.845, 648.843 275.728, 636.774 261.318 C 619.271 240.418, 591.944 230.865, 567.107 236.962 M 761.500 311.663 C 760.400 311.932, 757.826 312.581, 755.781 313.106 C 751.350 314.243, 735.520 325.807, 721.135 338.415 C 699.540 357.342, 702.075 355.538, 700.091 353.394 C 699.127 352.352, 692.685 344.975, 685.776 337 C 678.867 329.025, 670.973 320.025, 668.235 317.001 L 663.256 311.502 662.544 317.001 C 660.909 329.634, 657.436 339.492, 651.436 348.531 C 646.498 355.970, 631.392 370.805, 624.609 374.877 C 614.037 381.224, 599.607 385, 585.928 385 C 583.217 385, 581 385.231, 581 385.514 C 581 386.496, 605.352 414.292, 613.404 422.501 C 620.043 429.270, 623.030 431.481, 630 434.787 C 640.140 439.598, 646.315 441.002, 657.299 440.994 C 668.846 440.987, 676.800 438.674, 686 432.651 C 688.475 431.031, 700.625 419.715, 713 407.505 C 732.571 388.196, 745.026 376.994, 787.919 340.124 C 792.639 336.068, 796.619 332.448, 796.765 332.080 C 797.387 330.509, 782.091 315.930, 777.918 314.117 C 773.261 312.093, 764.870 310.839, 761.500 311.663 M 334.667 482.667 C 333.562 483.772, 333.917 488.517, 335.200 489.800 C 335.860 490.460, 337.345 491, 338.500 491 C 339.655 491, 341.140 490.460, 341.800 489.800 C 342.460 489.140, 343 487.655, 343 486.500 C 343 485.345, 342.460 483.860, 341.800 483.200 C 340.517 481.917, 335.772 481.562, 334.667 482.667 M 204 503.500 L 204 523 208.500 523 L 213 523 213 518.622 C 213 516.108, 213.591 513.755, 214.388 513.093 C 215.509 512.163, 216.376 513.005, 218.896 517.471 L 222.017 523 227.116 523 C 233.028 523, 233.050 523.448, 226.607 513.037 L 221.989 505.574 227.210 500.287 L 232.432 495 227.020 495 C 221.828 495, 221.435 495.193, 217.349 499.750 L 213.090 504.500 213.045 494.250 L 213 484 208.500 484 L 204 484 204 503.500 M 58 504.500 L 58 523 62.500 523 L 67 523 67.030 511.250 L 67.061 499.500 71.280 509.278 L 75.500 519.056 78.964 518.778 C 82.325 518.508, 82.548 518.219, 86.464 509.032 L 90.500 499.564 90.782 511.282 L 91.063 523 95.032 523 L 99 523 99 504.448 L 99 485.895 93.865 486.198 L 88.730 486.500 84.173 496.750 C 81.666 502.387, 79.314 507, 78.947 507 C 78.580 507, 76.118 502.275, 73.476 496.500 L 68.673 486 63.337 486 L 58 486 58 504.500 M 298 492 C 298 495.333, 297.667 496, 296 496 C 294.444 496, 294 496.667, 294 499 C 294 501.333, 294.444 502, 296 502 C 297.830 502, 298 502.667, 298 509.865 C 298 519.018, 299.806 522.366, 305.301 523.397 C 309.618 524.207, 315.328 522.297, 314.561 520.299 C 314.253 519.495, 314 518.227, 314 517.482 C 314 516.684, 312.663 515.998, 310.750 515.813 L 307.500 515.500 307.206 508.813 L 306.911 502.126 310.706 501.813 C 314.009 501.541, 314.541 501.144, 314.816 498.750 C 315.116 496.149, 314.913 496, 311.066 496 L 307 496 307 492 L 307 488 302.500 488 L 298 488 298 492 M 126.009 495.330 C 121.228 496.575, 120.096 498.382, 122.251 501.328 C 123.335 502.811, 124.037 502.936, 126.345 502.059 C 131.878 499.955, 137 501.225, 137 504.700 C 137 505.588, 135.463 506, 132.149 506 C 122.697 506, 119 508.603, 119 515.260 C 119 520.243, 122.849 523.528, 128.542 523.405 C 130.951 523.353, 133.687 522.678, 134.623 521.905 C 135.942 520.816, 136.420 520.782, 136.746 521.750 C 136.998 522.498, 138.941 523, 141.583 523 L 146 523 146 512.223 C 146 500.096, 145.088 497.770, 139.401 495.394 C 135.467 493.750, 132.138 493.734, 126.009 495.330 M 179.711 495.892 C 176.780 497.387, 176 497.492, 176 496.392 C 176 495.409, 174.678 495, 171.500 495 L 167 495 167 509 L 167 523 171.500 523 L 176 523 176 514.655 C 176 505.542, 176.890 503.807, 182.250 502.470 C 184.661 501.868, 185 501.304, 185 497.892 C 185 493.426, 184.740 493.328, 179.711 495.892 M 257.500 495.461 C 255.300 496.266, 252.718 497.884, 251.763 499.057 C 246.480 505.542, 247.835 516.898, 254.368 520.902 C 259.435 524.007, 267.824 524.015, 272.900 520.919 L 276.301 518.846 273.751 516.296 C 271.329 513.874, 271.084 513.828, 268.878 515.373 C 267.600 516.268, 265.630 517, 264.500 517 C 261.849 517, 258 514.302, 258 512.443 C 258 511.281, 259.964 511, 268.088 511 L 278.176 511 277.492 506.750 C 276.282 499.233, 272.648 495.535, 265.500 494.549 C 263.114 494.220, 259.886 494.588, 257.500 495.461 M 379 494.706 C 378.175 495.008, 376.488 496.176, 375.250 497.302 L 373 499.349 373 497.174 C 373 495.264, 372.454 495, 368.500 495 L 364 495 364 509 L 364 523 368.500 523 L 373 523 373 515.056 C 373 508.116, 373.303 506.759, 375.396 504.326 C 377.505 501.874, 378.134 501.661, 380.646 502.542 C 383.491 503.540, 383.501 503.574, 383.786 513.272 L 384.072 523 388.536 523 L 393 523 393 511.934 C 393 505.848, 392.537 500.003, 391.970 498.945 C 389.995 495.253, 383.400 493.098, 379 494.706 M 418.372 495.589 C 413.691 497.898, 411.627 502.492, 412.195 509.341 C 412.747 515.989, 415.330 519.419, 421.084 521.143 C 424.106 522.049, 425.387 521.954, 428.047 520.626 C 432.156 518.577, 432 518.544, 432 521.443 C 432 524.253, 428.661 527, 425.245 527 C 423.975 527, 421.375 526.348, 419.467 525.551 C 416.063 524.128, 415.972 524.154, 414.526 526.950 C 412.833 530.224, 413.412 531.006, 418.899 532.855 C 423.802 534.506, 428.894 534.231, 433.684 532.057 C 440.179 529.108, 441 526.581, 441 509.550 L 441 495 436.500 495 C 434.025 495, 432 495.427, 432 495.949 C 432 496.471, 430.439 496.246, 428.532 495.449 C 424.173 493.628, 422.295 493.653, 418.372 495.589 M 334 509 L 334 523 338.500 523 L 343 523 343 509 L 343 495 338.500 495 L 334 495 334 509 M 258.598 503.163 C 256.472 506.199, 257.391 507, 263 507 C 268.413 507, 269.625 506.037, 268.011 503.021 C 266.478 500.157, 260.642 500.245, 258.598 503.163 M 422 503 C 417.933 507.067, 420.806 515, 426.345 515 C 429.619 515, 432 511.980, 432 507.826 C 432 501.662, 426.158 498.842, 422 503 M 127.667 511.667 C 126.314 513.019, 127.059 515.961, 129.019 517.010 C 131.764 518.479, 136.391 516.243, 136.820 513.241 C 137.109 511.211, 136.725 511, 132.736 511 C 130.315 511, 128.033 511.300, 127.667 511.667" stroke="none" fill="#061d5d" fill-rule="evenodd"/><path d="M 0 356.501 L 0 713.002 417.250 712.751 L 834.500 712.500 834.751 356.250 L 835.003 0 417.501 0 L 0 0 0 356.501 M 0.494 357 C 0.494 553.075, 0.609 633.288, 0.750 535.250 C 0.891 437.213, 0.891 276.788, 0.750 178.750 C 0.609 80.713, 0.494 160.925, 0.494 357 M 155.109 182.581 C 147.159 184.719, 141.271 187.556, 135.046 192.247 C 131.996 194.546, 113.959 211.743, 94.965 230.463 C 75.971 249.183, 52.916 270.973, 43.733 278.884 L 27.035 293.268 32.101 299.116 C 41.813 310.327, 48.061 313.878, 58.212 313.956 C 69.799 314.045, 78.579 308.589, 107.038 283.617 C 115.542 276.155, 122.762 270.038, 123.081 270.025 C 123.401 270.011, 129.326 276.440, 136.248 284.311 C 143.170 292.181, 151.536 301.453, 154.840 304.914 L 160.846 311.207 161.461 306.353 C 163.074 293.616, 167.293 282.013, 173.407 273.500 C 178.792 266.001, 191.736 253.237, 198.354 248.901 C 208.644 242.160, 222.947 238.112, 236.750 238.035 C 240.213 238.016, 243 237.556, 243 237.003 C 243 235.552, 223.181 213.145, 211.523 201.416 C 203.509 193.352, 199.997 190.600, 194 187.681 C 180.458 181.089, 167.148 179.344, 155.109 182.581 M 514 183.690 C 509.870 184.381, 499.779 187.947, 495.307 190.297 C 491.823 192.128, 382.276 285.553, 379.036 289.457 C 377.652 291.125, 391.951 305.853, 397.465 308.438 C 403.562 311.298, 413.394 311.632, 419.760 309.197 C 427.161 306.365, 438.684 297.834, 457.989 280.890 L 474.636 266.280 487.962 282.140 C 495.291 290.863, 501.673 298, 502.144 298 C 502.615 298, 503.007 296.313, 503.015 294.250 C 503.057 283.986, 509.983 266.233, 517.759 256.454 C 523.602 249.106, 532.759 240.354, 538.797 236.347 C 549.396 229.311, 563.889 225.112, 577.833 225.035 C 581.317 225.016, 584.017 224.585, 583.833 224.079 C 583.650 223.572, 577.023 216.093, 569.106 207.459 C 553.547 190.490, 550.043 188.024, 536.540 184.539 C 531.030 183.116, 519.931 182.699, 514 183.690 M 565.500 237.123 C 552.355 240.843, 544.371 245.568, 534.500 255.471 C 524.621 265.382, 520.231 272.029, 516.210 283.165 C 513.810 289.815, 513.561 291.854, 513.546 305 C 513.532 317.613, 513.829 320.346, 515.833 326 C 525.081 352.107, 548.433 371.144, 574.818 374.086 C 586.091 375.343, 593.732 374.645, 604.021 371.417 C 637.332 360.968, 658.729 324.694, 651.553 290.837 C 646.263 265.876, 625.388 244.103, 600.004 237.068 C 590.094 234.322, 575.315 234.345, 565.500 237.123 M 230.763 248.965 C 194.379 255.610, 170.480 285.600, 172.233 322.414 C 173.057 339.733, 178.747 352.638, 191.379 365.838 C 205.599 380.698, 221.520 387.546, 241.500 387.397 C 261.062 387.251, 276.176 380.918, 290.058 367.049 C 298.962 358.154, 304.491 349.196, 308.608 337 C 311.274 329.101, 311.284 306.802, 308.626 299 C 304.480 286.834, 298.910 277.836, 290.037 268.972 C 280.703 259.647, 272.693 254.787, 260.506 251.056 C 252.653 248.651, 238.088 247.628, 230.763 248.965 M 760.500 311.525 C 759.950 311.727, 757.682 312.358, 755.461 312.928 C 749.661 314.415, 732.680 327.390, 711.698 346.365 C 706.307 351.240, 701.765 355.065, 701.605 354.865 C 692.103 342.971, 664.110 312, 662.862 312 C 662.388 312, 662 314.155, 662 316.790 C 662 323.669, 659.571 332.293, 655.006 341.620 C 651.997 347.769, 648.827 352.070, 641.948 359.338 C 626.227 375.950, 613.710 382.268, 592.500 384.298 C 586.450 384.877, 581.336 385.473, 581.136 385.623 C 580.587 386.033, 596.862 405.056, 608.351 417.433 C 620.006 429.989, 627.102 434.998, 638.213 438.508 C 649.366 442.031, 658.009 442.644, 667.321 440.572 C 681.689 437.375, 684.833 435.116, 713.436 407.428 C 727.771 393.551, 752.438 371.057, 768.250 357.441 C 784.063 343.825, 797 332.274, 797 331.771 C 797 331.268, 793.246 327.103, 788.657 322.514 C 781.726 315.584, 779.409 313.902, 774.975 312.585 C 770.097 311.137, 762.978 310.615, 760.500 311.525 M 403.726 314.360 C 395.756 317.723, 384.820 326.164, 361.498 346.953 C 351.593 355.783, 349.594 357.170, 348.635 355.884 C 348.011 355.046, 341.875 347.680, 335 339.514 L 322.500 324.667 321.782 330.583 C 319.766 347.206, 313.421 360.291, 301.063 373.312 C 285.579 389.626, 271.457 396.507, 250.761 397.820 L 240.051 398.500 253.643 413.500 C 268.186 429.549, 272.040 432.749, 280.752 436.008 C 297.003 442.089, 312.165 441.049, 328.522 432.734 C 331.260 431.342, 343.850 421.283, 356.500 410.380 C 369.150 399.477, 394.350 377.799, 412.500 362.206 C 430.650 346.613, 445.638 333.473, 445.807 333.007 C 446.329 331.563, 432.885 318.017, 428.212 315.279 C 421.670 311.445, 411.536 311.064, 403.726 314.360 M 335 483 C 332.731 485.269, 332.565 486.318, 334.035 489.066 C 335.208 491.258, 339.899 491.701, 341.800 489.800 C 343.701 487.899, 343.258 483.208, 341.066 482.035 C 338.318 480.565, 337.269 480.731, 335 483 M 772.223 482.557 C 769.805 484.250, 769.291 487.891, 771.200 489.800 C 773.109 491.709, 776.750 491.195, 778.443 488.777 C 780.447 485.917, 780.408 485.408, 778 483 C 775.592 480.592, 775.083 480.553, 772.223 482.557 M 203 503.500 L 203 523 208 523 L 213 523 213 519.122 C 213 516.951, 213.639 514.714, 214.453 514.039 C 215.660 513.038, 216.383 513.695, 218.703 517.902 L 221.500 522.971 227.261 522.986 L 233.022 523 227.574 514.250 L 222.126 505.500 227.063 500.469 C 229.778 497.701, 232 495.114, 232 494.719 C 232 494.323, 229.812 494, 227.137 494 C 222.597 494, 221.965 494.329, 217.637 498.957 L 213 503.914 213 493.957 L 213 484 208 484 L 203 484 203 503.500 M 634 503.500 L 634 523 638.500 523 L 643 523 643 519.122 C 643 516.868, 643.638 514.715, 644.524 513.980 C 646.303 512.504, 645.962 512.209, 649.449 518.250 C 652.187 522.995, 652.196 523, 657.606 523 L 663.022 523 657.574 514.250 L 652.126 505.500 657.279 500.250 L 662.432 495 657.271 495 C 652.417 495, 651.841 495.282, 647.578 499.750 L 643.046 504.500 643.023 494.250 L 643 484 638.500 484 L 634 484 634 503.500 M 58 504.500 L 58 523 62.467 523 L 66.934 523 67.217 511.940 L 67.500 500.881 71.556 510.190 C 75.482 519.202, 75.716 519.500, 78.870 519.500 C 82.025 519.500, 82.261 519.199, 86.314 510.004 L 90.500 500.508 90.783 511.754 L 91.066 523 95.533 523 L 100 523 100 504.500 L 100 486 94.452 486 L 88.903 486 83.836 496.750 L 78.768 507.500 75.780 501 C 74.136 497.425, 71.954 492.587, 70.931 490.250 L 69.071 486 63.536 486 L 58 486 58 504.500 M 489 504.448 L 489 523 492.968 523 L 496.937 523 497.218 511.432 L 497.500 499.864 501.898 509.984 C 506.175 519.823, 506.381 520.096, 509.308 519.802 C 512.095 519.522, 512.639 518.756, 516.623 509.500 L 520.928 499.500 520.964 511.250 L 521 523 525.500 523 L 530 523 530 504.500 L 530 486 524.630 486 L 519.260 486 514.429 496.500 C 511.773 502.275, 509.350 507, 509.045 507 C 508.740 507, 506.436 502.387, 503.924 496.750 L 499.357 486.500 494.178 486.198 L 489 485.895 489 504.448 M 298 492 C 298 495.333, 297.667 496, 296 496 C 294.444 496, 294 496.667, 294 499 C 294 501.333, 294.444 502, 296 502 C 297.832 502, 298 502.667, 298 509.944 C 298 516.900, 298.300 518.237, 300.413 520.694 C 302.464 523.078, 303.585 523.500, 307.863 523.500 C 314.021 523.500, 315.584 522.240, 314.270 518.337 C 313.532 516.147, 312.791 515.577, 311.019 515.836 C 307.906 516.292, 307.033 514.531, 307.015 507.750 L 307 502 311 502 C 314.778 502, 315 501.833, 315 499 C 315 496.167, 314.778 496, 311 496 L 307 496 307 492 L 307 488 302.500 488 L 298 488 298 492 M 124.500 495.529 C 122.300 496.321, 120.411 496.977, 120.302 496.985 C 120.193 496.993, 120.588 498.388, 121.179 500.083 C 122.043 502.562, 122.670 503.052, 124.377 502.583 C 130.607 500.869, 133.695 500.838, 135.328 502.471 C 138.082 505.224, 137.326 505.756, 130.073 506.166 C 122.506 506.593, 119.667 508.207, 118.532 512.727 C 116.537 520.676, 126.015 526.629, 134.050 522.474 C 135.741 521.600, 137 521.386, 137 521.974 C 137 522.538, 139.025 523, 141.500 523 L 146 523 146 511.965 C 146 499.584, 145.011 496.897, 139.785 495.075 C 135.581 493.609, 129.311 493.796, 124.500 495.529 M 166.667 494.667 C 166.300 495.033, 166 501.558, 166 509.167 L 166 523 171 523 L 176 523 176 515.223 C 176 506.048, 177.511 503, 182.057 503 C 184.889 503, 185 502.826, 185 498.392 C 185 493.865, 184.951 493.795, 182.250 494.470 C 180.738 494.847, 178.713 495.866, 177.750 496.733 C 176.137 498.187, 176 498.141, 176 496.155 C 176 494.280, 175.437 494, 171.667 494 C 169.283 494, 167.033 494.300, 166.667 494.667 M 256.415 495.421 C 244.150 500.762, 245.801 519.164, 258.897 523.087 C 263.855 524.573, 271.217 523.165, 274.275 520.147 C 275.973 518.470, 275.948 518.300, 273.688 516.177 C 271.490 514.112, 271.095 514.057, 267.957 515.376 C 264.429 516.859, 260.301 516.098, 258.802 513.687 C 258.259 512.813, 260.628 512.368, 267.782 512 L 277.500 511.500 277.410 507.203 C 277.204 497.343, 266.193 491.164, 256.415 495.421 M 334 508.500 L 334 523 338.500 523 L 343 523 343 508.500 L 343 494 338.500 494 L 334 494 334 508.500 M 364 508.500 L 364 523 369 523 L 374 523 374 514.023 C 374 505.551, 374.141 504.954, 376.500 503.408 C 378.816 501.891, 379.184 501.891, 381.500 503.408 C 383.859 504.954, 384 505.551, 384 514.023 L 384 523 389 523 L 394 523 394 513.468 C 394 503.009, 392.638 498.261, 388.883 495.631 C 385.684 493.390, 379.829 493.560, 376.747 495.984 C 374.232 497.963, 374.224 497.963, 373.706 495.984 C 373.284 494.369, 372.334 494, 368.594 494 L 364 494 364 508.500 M 417.763 495.565 C 412.896 498.206, 410.306 505.710, 412.040 512.149 C 414.140 519.946, 421.821 523.886, 428.611 520.648 C 431.643 519.203, 432 519.196, 432 520.582 C 432 525.779, 426.909 527.938, 420.219 525.577 L 416.005 524.090 414.502 526.996 C 413.676 528.593, 413 530.099, 413 530.342 C 413 530.584, 414.809 531.507, 417.020 532.391 C 425.358 535.728, 435.010 533.698, 439.429 527.679 C 441.309 525.119, 441.500 523.458, 441.500 509.679 L 441.500 494.500 436.750 494.195 C 433.065 493.959, 432 494.226, 432 495.386 C 432 496.698, 431.664 496.706, 429.250 495.447 C 425.750 493.621, 421.261 493.667, 417.763 495.565 M 555.508 495.357 C 551.194 496.657, 550.186 498.505, 552.251 501.328 C 553.335 502.811, 554.037 502.936, 556.345 502.059 C 561.878 499.955, 567 501.225, 567 504.700 C 567 505.588, 565.463 506, 562.149 506 C 552.697 506, 549 508.603, 549 515.260 C 549 521.771, 556.342 525.555, 563.319 522.640 C 565.344 521.794, 567 521.529, 567 522.051 C 567 522.573, 569.025 523, 571.500 523 L 576 523 576 511.934 C 576 505.848, 575.514 499.960, 574.920 498.850 C 572.589 494.494, 563.686 492.892, 555.508 495.357 M 611 495.101 C 609.625 495.637, 607.938 496.820, 607.250 497.729 C 606.127 499.214, 606 499.159, 606 497.191 C 606 495.261, 605.464 495, 601.500 495 L 597 495 597 509 L 597 523 601.500 523 L 606 523 606 515.223 C 606 506.354, 607.334 503.525, 612.001 502.500 C 614.711 501.905, 615 501.463, 615 497.921 C 615 493.725, 614.833 493.607, 611 495.101 M 685.508 495.357 C 681.225 496.647, 680.173 498.526, 682.221 501.222 C 683.324 502.674, 684.075 502.748, 687.686 501.763 C 692.418 500.472, 697 501.808, 697 504.479 C 697 505.631, 695.825 506, 692.149 506 C 682.697 506, 679 508.603, 679 515.260 C 679 521.771, 686.342 525.555, 693.319 522.640 C 695.344 521.794, 697 521.529, 697 522.051 C 697 522.573, 699.025 523, 701.500 523 L 706 523 706 511.965 C 706 503.633, 705.616 500.344, 704.434 498.540 C 701.595 494.207, 693.719 492.882, 685.508 495.357 M 725 498 L 725 501 731.500 501 C 735.075 501, 738 501.374, 738 501.830 C 738 502.287, 735.085 506, 731.523 510.080 C 726.968 515.299, 725.039 518.316, 725.023 520.250 L 725 523 738 523 L 751 523 751 519.544 L 751 516.088 744.061 515.794 L 737.122 515.500 744.060 507.500 C 748.212 502.711, 750.997 498.597, 750.998 497.250 C 751 495.032, 750.815 495, 738 495 L 725 495 725 498 M 770 509 L 770 523 774.500 523 L 779 523 779 509 L 779 495 774.500 495 L 770 495 770 509 M 259.626 502.517 C 256.896 505.247, 257.759 506, 263.622 506 C 269.226 506, 269.239 505.993, 267.759 503.750 C 265.923 500.970, 261.799 500.344, 259.626 502.517 M 422.073 503.635 C 419.709 506.640, 419.519 508.218, 421.150 511.316 C 423.368 515.531, 426.813 516.187, 430 513 C 433.892 509.108, 431.239 501, 426.073 501 C 425.012 501, 423.212 502.186, 422.073 503.635 M 128.105 512.373 C 126.311 514.536, 127.871 517, 131.036 517 C 134.066 517, 137 514.751, 137 512.429 C 137 510.533, 129.670 510.488, 128.105 512.373 M 558.105 512.373 C 556.209 514.658, 557.881 517, 561.407 517 C 564.985 517, 567 515.487, 567 512.800 C 567 511.376, 566.190 511, 563.122 511 C 560.990 511, 558.732 511.618, 558.105 512.373 M 688.105 512.373 C 686.209 514.658, 687.881 517, 691.407 517 C 694.985 517, 697 515.487, 697 512.800 C 697 511.376, 696.190 511, 693.122 511 C 690.990 511, 688.732 511.618, 688.105 512.373" stroke="none" fill="transparent" fill-rule="evenodd"/></svg>